<?xml version="1.0" encoding="us-ascii" standalone="no"?><svg xmlns="http://www.w3.org/2000/svg" xmlns:xlink="http://www.w3.org/1999/xlink" contentStyleType="text/css" height="2612.5px" preserveAspectRatio="none" style="width:1771px;height:2612px;background:#FFFFFF;" version="1.1" viewBox="0 0 1771 2612" width="1771.875px" zoomAndPan="magnify"><defs/><g><rect fill="#F1F1F1" height="107.251" rx="39.0625" ry="39.0625" style="stroke:#181818;stroke-width:4.6875;" width="106.25" x="31.25" y="1250.7568"/><text fill="#000000" font-family="SF Mono" font-size="37.5" lengthAdjust="spacing" textLength="43.75" x="62.5" y="1317.7124">./</text><rect fill="#F1F1F1" height="107.251" rx="39.0625" ry="39.0625" style="stroke:#181818;stroke-width:4.6875;" width="281.25" x="293.75" y="62.5"/><text fill="#000000" font-family="SF Mono" font-size="37.5" lengthAdjust="spacing" textLength="218.75" x="325" y="129.4556">index.html</text><path d="M137.5,1304.3823 L168.75,1304.3823 C215.625,1304.3823 215.625,116.1255 262.5,116.1255 L293.75,116.1255 " fill="none" style="stroke:#181818;stroke-width:3.125;"/><rect fill="#F1F1F1" height="107.251" rx="39.0625" ry="39.0625" style="stroke:#181818;stroke-width:4.6875;" width="346.875" x="293.75" y="232.251"/><text fill="#000000" font-family="SF Mono" font-size="37.5" lengthAdjust="spacing" textLength="284.375" x="325" y="299.2065">paxina_1.html</text><path d="M137.5,1304.3823 L168.75,1304.3823 C215.625,1304.3823 215.625,285.8765 262.5,285.8765 L293.75,285.8765 " fill="none" style="stroke:#181818;stroke-width:3.125;"/><rect fill="#ADD8E6" height="107.251" rx="39.0625" ry="39.0625" style="stroke:#181818;stroke-width:4.6875;" width="171.875" x="293.75" y="486.8774"/><text fill="#000000" font-family="SF Mono" font-size="37.5" lengthAdjust="spacing" textLength="109.375" x="325" y="553.833">blog/</text><rect fill="#F1F1F1" height="107.251" rx="39.0625" ry="39.0625" style="stroke:#181818;stroke-width:4.6875;" width="390.625" x="621.875" y="402.002"/><text fill="#000000" font-family="SF Mono" font-size="37.5" lengthAdjust="spacing" textLength="328.125" x="653.125" y="468.9575">articulo_1.html</text><path d="M465.625,540.5029 L496.875,540.5029 C543.75,540.5029 543.75,455.6274 590.625,455.6274 L621.875,455.6274 " fill="none" style="stroke:#181818;stroke-width:3.125;"/><rect fill="#F1F1F1" height="107.251" rx="39.0625" ry="39.0625" style="stroke:#181818;stroke-width:4.6875;" width="390.625" x="621.875" y="571.7529"/><text fill="#000000" font-family="SF Mono" font-size="37.5" lengthAdjust="spacing" textLength="328.125" x="653.125" y="638.7085">articulo_2.html</text><path d="M465.625,540.5029 L496.875,540.5029 C543.75,540.5029 543.75,625.3784 590.625,625.3784 L621.875,625.3784 " fill="none" style="stroke:#181818;stroke-width:3.125;"/><path d="M137.5,1304.3823 L168.75,1304.3823 C215.625,1304.3823 215.625,540.5029 262.5,540.5029 L293.75,540.5029 " fill="none" style="stroke:#181818;stroke-width:3.125;"/><rect fill="#ADD8E6" height="107.251" rx="39.0625" ry="39.0625" style="stroke:#181818;stroke-width:4.6875;" width="303.125" x="293.75" y="826.3794"/><text fill="#000000" font-family="SF Mono" font-size="37.5" lengthAdjust="spacing" textLength="240.625" x="325" y="893.335">components/</text><rect fill="#F1F1F1" height="107.251" rx="39.0625" ry="39.0625" style="stroke:#181818;stroke-width:4.6875;" width="390.625" x="753.125" y="741.5039"/><text fill="#000000" font-family="SF Mono" font-size="37.5" lengthAdjust="spacing" textLength="328.125" x="784.375" y="808.4595">calendario.html</text><path d="M596.875,880.0049 L628.125,880.0049 C675,880.0049 675,795.1294 721.875,795.1294 L753.125,795.1294 " fill="none" style="stroke:#181818;stroke-width:3.125;"/><rect fill="#F1F1F1" height="107.251" rx="39.0625" ry="39.0625" style="stroke:#181818;stroke-width:4.6875;" width="390.625" x="753.125" y="911.2549"/><text fill="#000000" font-family="SF Mono" font-size="37.5" lengthAdjust="spacing" textLength="328.125" x="784.375" y="978.2104">formulario.html</text><path d="M596.875,880.0049 L628.125,880.0049 C675,880.0049 675,964.8804 721.875,964.8804 L753.125,964.8804 " fill="none" style="stroke:#181818;stroke-width:3.125;"/><path d="M137.5,1304.3823 L168.75,1304.3823 C215.625,1304.3823 215.625,880.0049 262.5,880.0049 L293.75,880.0049 " fill="none" style="stroke:#181818;stroke-width:3.125;"/><rect fill="#ADD8E6" height="107.251" rx="39.0625" ry="39.0625" style="stroke:#181818;stroke-width:4.6875;" width="215.625" x="293.75" y="1760.0098"/><text fill="#000000" font-family="SF Mono" font-size="37.5" lengthAdjust="spacing" textLength="153.125" x="325" y="1826.9653">assets/</text><rect fill="#F1F1F1" height="107.251" rx="39.0625" ry="39.0625" style="stroke:#181818;stroke-width:4.6875;" width="303.125" x="665.625" y="1081.0059"/><text fill="#000000" font-family="SF Mono" font-size="37.5" lengthAdjust="spacing" textLength="240.625" x="696.875" y="1147.9614">favicon.ico</text><path d="M509.375,1813.6353 L540.625,1813.6353 C587.5,1813.6353 587.5,1134.6313 634.375,1134.6313 L665.625,1134.6313 " fill="none" style="stroke:#181818;stroke-width:3.125;"/><rect fill="#ADD8E6" height="107.251" rx="39.0625" ry="39.0625" style="stroke:#181818;stroke-width:4.6875;" width="193.75" x="665.625" y="1420.5078"/><text fill="#000000" font-family="SF Mono" font-size="37.5" lengthAdjust="spacing" textLength="131.25" x="696.875" y="1487.4634">media/</text><rect fill="#ADD8E6" height="107.251" rx="39.0625" ry="39.0625" style="stroke:#181818;stroke-width:4.6875;" width="215.625" x="1015.625" y="1335.6323"/><text fill="#000000" font-family="SF Mono" font-size="37.5" lengthAdjust="spacing" textLength="153.125" x="1046.875" y="1402.5879">images/</text><rect fill="#F1F1F1" height="107.251" rx="39.0625" ry="39.0625" style="stroke:#181818;stroke-width:4.6875;" width="325" x="1387.5" y="1250.7568"/><text fill="#000000" font-family="SF Mono" font-size="37.5" lengthAdjust="spacing" textLength="262.5" x="1418.75" y="1317.7124">imaxe_1.webp</text><path d="M1231.25,1389.2578 L1262.5,1389.2578 C1309.375,1389.2578 1309.375,1304.3823 1356.25,1304.3823 L1387.5,1304.3823 " fill="none" style="stroke:#181818;stroke-width:3.125;"/><rect fill="#F1F1F1" height="107.251" rx="39.0625" ry="39.0625" style="stroke:#181818;stroke-width:4.6875;" width="325" x="1387.5" y="1420.5078"/><text fill="#000000" font-family="SF Mono" font-size="37.5" lengthAdjust="spacing" textLength="262.5" x="1418.75" y="1487.4634">imaxe_2.webp</text><path d="M1231.25,1389.2578 L1262.5,1389.2578 C1309.375,1389.2578 1309.375,1474.1333 1356.25,1474.1333 L1387.5,1474.1333 " fill="none" style="stroke:#181818;stroke-width:3.125;"/><path d="M859.375,1474.1333 L890.625,1474.1333 C937.5,1474.1333 937.5,1389.2578 984.375,1389.2578 L1015.625,1389.2578 " fill="none" style="stroke:#181818;stroke-width:3.125;"/><rect fill="#ADD8E6" height="107.251" rx="39.0625" ry="39.0625" style="stroke:#181818;stroke-width:4.6875;" width="193.75" x="1015.625" y="1590.2588"/><text fill="#000000" font-family="SF Mono" font-size="37.5" lengthAdjust="spacing" textLength="131.25" x="1046.875" y="1657.2144">fonts/</text><rect fill="#F1F1F1" height="107.251" rx="39.0625" ry="39.0625" style="stroke:#181818;stroke-width:4.6875;" width="368.75" x="1365.625" y="1590.2588"/><text fill="#000000" font-family="SF Mono" font-size="37.5" lengthAdjust="spacing" textLength="306.25" x="1396.875" y="1657.2144">tipografia.ttf</text><path d="M1209.375,1643.8843 L1240.625,1643.8843 C1287.5,1643.8843 1287.5,1643.8843 1334.375,1643.8843 L1365.625,1643.8843 " fill="none" style="stroke:#181818;stroke-width:3.125;"/><path d="M859.375,1474.1333 L890.625,1474.1333 C937.5,1474.1333 937.5,1643.8843 984.375,1643.8843 L1015.625,1643.8843 " fill="none" style="stroke:#181818;stroke-width:3.125;"/><path d="M509.375,1813.6353 L540.625,1813.6353 C587.5,1813.6353 587.5,1474.1333 634.375,1474.1333 L665.625,1474.1333 " fill="none" style="stroke:#181818;stroke-width:3.125;"/><rect fill="#ADD8E6" height="107.251" rx="39.0625" ry="39.0625" style="stroke:#181818;stroke-width:4.6875;" width="193.75" x="665.625" y="1929.7607"/><text fill="#000000" font-family="SF Mono" font-size="37.5" lengthAdjust="spacing" textLength="131.25" x="696.875" y="1996.7163">style/</text><rect fill="#F1F1F1" height="107.251" rx="39.0625" ry="39.0625" style="stroke:#181818;stroke-width:4.6875;" width="259.375" x="1015.625" y="1760.0098"/><text fill="#000000" font-family="SF Mono" font-size="37.5" lengthAdjust="spacing" textLength="196.875" x="1046.875" y="1826.9653">reset.css</text><path d="M859.375,1983.3862 L890.625,1983.3862 C937.5,1983.3862 937.5,1813.6353 984.375,1813.6353 L1015.625,1813.6353 " fill="none" style="stroke:#181818;stroke-width:3.125;"/><rect fill="#F1F1F1" height="107.251" rx="39.0625" ry="39.0625" style="stroke:#181818;stroke-width:4.6875;" width="237.5" x="1015.625" y="1929.7607"/><text fill="#000000" font-family="SF Mono" font-size="37.5" lengthAdjust="spacing" textLength="175" x="1046.875" y="1996.7163">base.css</text><path d="M859.375,1983.3862 L890.625,1983.3862 C937.5,1983.3862 937.5,1983.3862 984.375,1983.3862 L1015.625,1983.3862 " fill="none" style="stroke:#181818;stroke-width:3.125;"/><rect fill="#F1F1F1" height="107.251" rx="39.0625" ry="39.0625" style="stroke:#181818;stroke-width:4.6875;" width="281.25" x="1015.625" y="2099.5117"/><text fill="#000000" font-family="SF Mono" font-size="37.5" lengthAdjust="spacing" textLength="218.75" x="1046.875" y="2166.4673">clases.css</text><path d="M859.375,1983.3862 L890.625,1983.3862 C937.5,1983.3862 937.5,2153.1372 984.375,2153.1372 L1015.625,2153.1372 " fill="none" style="stroke:#181818;stroke-width:3.125;"/><path d="M509.375,1813.6353 L540.625,1813.6353 C587.5,1813.6353 587.5,1983.3862 634.375,1983.3862 L665.625,1983.3862 " fill="none" style="stroke:#181818;stroke-width:3.125;"/><rect fill="#ADD8E6" height="107.251" rx="39.0625" ry="39.0625" style="stroke:#181818;stroke-width:4.6875;" width="150" x="665.625" y="2354.1382"/><text fill="#000000" font-family="SF Mono" font-size="37.5" lengthAdjust="spacing" textLength="87.5" x="696.875" y="2421.0938">lib/</text><rect fill="#F1F1F1" height="107.251" rx="39.0625" ry="39.0625" style="stroke:#181818;stroke-width:4.6875;" width="303.125" x="971.875" y="2269.2627"/><text fill="#000000" font-family="SF Mono" font-size="37.5" lengthAdjust="spacing" textLength="240.625" x="1003.125" y="2336.2183">script_1.js</text><path d="M815.625,2407.7637 L846.875,2407.7637 C893.75,2407.7637 893.75,2322.8882 940.625,2322.8882 L971.875,2322.8882 " fill="none" style="stroke:#181818;stroke-width:3.125;"/><rect fill="#F1F1F1" height="107.251" rx="39.0625" ry="39.0625" style="stroke:#181818;stroke-width:4.6875;" width="303.125" x="971.875" y="2439.0137"/><text fill="#000000" font-family="SF Mono" font-size="37.5" lengthAdjust="spacing" textLength="240.625" x="1003.125" y="2505.9692">script_2.js</text><path d="M815.625,2407.7637 L846.875,2407.7637 C893.75,2407.7637 893.75,2492.6392 940.625,2492.6392 L971.875,2492.6392 " fill="none" style="stroke:#181818;stroke-width:3.125;"/><path d="M509.375,1813.6353 L540.625,1813.6353 C587.5,1813.6353 587.5,2407.7637 634.375,2407.7637 L665.625,2407.7637 " fill="none" style="stroke:#181818;stroke-width:3.125;"/><path d="M137.5,1304.3823 L168.75,1304.3823 C215.625,1304.3823 215.625,1813.6353 262.5,1813.6353 L293.75,1813.6353 " fill="none" style="stroke:#181818;stroke-width:3.125;"/><rect fill="#ADD8E6" height="107.251" rx="39.0625" ry="39.0625" style="stroke:#181818;stroke-width:4.6875;" width="171.875" x="293.75" y="1929.7607"/><text fill="#000000" font-family="SF Mono" font-size="37.5" lengthAdjust="spacing" textLength="109.375" x="325" y="1996.7163">docs/</text><path d="M137.5,1304.3823 L168.75,1304.3823 C215.625,1304.3823 215.625,1983.3862 262.5,1983.3862 L293.75,1983.3862 " fill="none" style="stroke:#181818;stroke-width:3.125;"/><!--SRC=[xPBBRjim44Nt_8hPDJ4GsLASeXKCmuWV1Lox2UeasuAYHZ9hYXH8ohLRvDyxVaL-BBhj8Xj1SpHpUJMyFUUvzONKQS5BvXPIbzpo0j9ImcshnJxKI4cDVbqY6EldvgXNcnGTbX1IVqqjrui3FHR6Z5VA_s408wFzDruWp4OmDThiqKp-HWWZzifOn_crmYxR-nj8dcyqDiD1PbIATliESC_58hUcqcdVA6F9QpxtYQgGlhwIKgUvLs8D29giqG1In5KmzuNQL2LVISr_X6yWKIPlTZgxGxfTGWsWHKbHALEt7R7eRLIOeZGQjNVd0e8hr2ctqjG2cR55fOuPSEVmSZZZIocC3kYnhGjC9JzhejygU8xdipk-GZB-2vFo14Kr8Y-NfWbxMHhQUoPvu7ssFNoxpOl3BSN01yAvNPbmXtKb59NkKDCD9HVpJbXPUdBvqvs0Q0SWDUB47klHEW_PPRr_HFaziE-1_Qy2-wYuzi_J2IpHEcaqX47KYcw3CBeQMGaFmaFKWl0kRd-ExzhG7ywUODDmpQw-F4x0cSeAX5GwRsLIULAuPcE-vF2zqbuM6CD3YNey-7e0CDHBQOqkwAxP-6LQDtnitznB3pEqv0LUfcomIprD29DAdSVm_3Iw-SGcNESLtLWCw5YVykljEeRXx2y0]--></g></svg>