<?xml version="1.0" encoding="us-ascii" standalone="no"?><svg xmlns="http://www.w3.org/2000/svg" xmlns:xlink="http://www.w3.org/1999/xlink" contentStyleType="text/css" height="1406.25px" preserveAspectRatio="none" style="width:3525px;height:1406px;background:#FFFFFF;" version="1.1" viewBox="0 0 3525 1406" width="3525px" zoomAndPan="magnify"><defs/><g><!--entity Index--><g id="elem_Index"><path d="M1495.3125,26.5625 L1495.3125,118.1885 A7.8125,7.8125 0 0 0 1503.125,126.001 L1659.375,126.001 A7.8125,7.8125 0 0 0 1667.1875,118.1885 L1667.1875,50 L1635.9375,18.75 L1503.125,18.75 A7.8125,7.8125 0 0 0 1495.3125,26.5625 " fill="#F1F1F1" style="stroke:#181818;stroke-width:1.5625;"/><path d="M1635.9375,18.75 L1635.9375,42.1875 A7.8125,7.8125 0 0 0 1643.75,50 L1667.1875,50 " fill="#F1F1F1" style="stroke:#181818;stroke-width:1.5625;"/><text fill="#000000" font-family="SF Mono" font-size="37.5" lengthAdjust="spacing" textLength="109.375" x="1526.5625" y="85.7056">Index</text></g><!--entity Blog--><g id="elem_Blog"><path d="M521.875,446.3125 L521.875,537.9385 A7.8125,7.8125 0 0 0 529.6875,545.751 L664.0625,545.751 A7.8125,7.8125 0 0 0 671.875,537.9385 L671.875,469.75 L640.625,438.5 L529.6875,438.5 A7.8125,7.8125 0 0 0 521.875,446.3125 " fill="#ADD8E6" style="stroke:#181818;stroke-width:1.5625;"/><path d="M640.625,438.5 L640.625,461.9375 A7.8125,7.8125 0 0 0 648.4375,469.75 L671.875,469.75 " fill="#ADD8E6" style="stroke:#181818;stroke-width:1.5625;"/><text fill="#000000" font-family="SF Mono" font-size="37.5" lengthAdjust="spacing" textLength="87.5" x="553.125" y="505.4556">Blog</text></g><!--entity A1--><g id="elem_A1"><path d="M18.75,866.0625 L18.75,957.6885 A7.8125,7.8125 0 0 0 26.5625,965.501 L292.1875,965.501 A7.8125,7.8125 0 0 0 300,957.6885 L300,889.5 L268.75,858.25 L26.5625,858.25 A7.8125,7.8125 0 0 0 18.75,866.0625 " fill="#ADD8E6" style="stroke:#181818;stroke-width:1.5625;"/><path d="M268.75,858.25 L268.75,881.6875 A7.8125,7.8125 0 0 0 276.5625,889.5 L300,889.5 " fill="#ADD8E6" style="stroke:#181818;stroke-width:1.5625;"/><text fill="#000000" font-family="SF Mono" font-size="37.5" lengthAdjust="spacing" textLength="218.75" x="50" y="925.2056">Art&#237;culo 1</text></g><!--entity A2--><g id="elem_A2"><path d="M456.25,866.0625 L456.25,957.6885 A7.8125,7.8125 0 0 0 464.0625,965.501 L729.6875,965.501 A7.8125,7.8125 0 0 0 737.5,957.6885 L737.5,889.5 L706.25,858.25 L464.0625,858.25 A7.8125,7.8125 0 0 0 456.25,866.0625 " fill="#ADD8E6" style="stroke:#181818;stroke-width:1.5625;"/><path d="M706.25,858.25 L706.25,881.6875 A7.8125,7.8125 0 0 0 714.0625,889.5 L737.5,889.5 " fill="#ADD8E6" style="stroke:#181818;stroke-width:1.5625;"/><text fill="#000000" font-family="SF Mono" font-size="37.5" lengthAdjust="spacing" textLength="218.75" x="487.5" y="925.2056">Art&#237;culo 2</text></g><!--entity Rese?as--><g id="elem_Rese&#241;as"><path d="M973.4375,446.3125 L973.4375,537.9385 A7.8125,7.8125 0 0 0 981.25,545.751 L1181.25,545.751 A7.8125,7.8125 0 0 0 1189.0625,537.9385 L1189.0625,469.75 L1157.8125,438.5 L981.25,438.5 A7.8125,7.8125 0 0 0 973.4375,446.3125 " fill="#F1F1F1" style="stroke:#181818;stroke-width:1.5625;"/><path d="M1157.8125,438.5 L1157.8125,461.9375 A7.8125,7.8125 0 0 0 1165.625,469.75 L1189.0625,469.75 " fill="#F1F1F1" style="stroke:#181818;stroke-width:1.5625;"/><text fill="#000000" font-family="SF Mono" font-size="37.5" lengthAdjust="spacing" textLength="153.125" x="1004.6875" y="505.4556">Rese&#241;as</text></g><!--entity Cartelera--><g id="elem_Cartelera"><path d="M1451.5625,446.3125 L1451.5625,537.9385 A7.8125,7.8125 0 0 0 1459.375,545.751 L1703.125,545.751 A7.8125,7.8125 0 0 0 1710.9375,537.9385 L1710.9375,469.75 L1679.6875,438.5 L1459.375,438.5 A7.8125,7.8125 0 0 0 1451.5625,446.3125 " fill="#90EE90" style="stroke:#181818;stroke-width:1.5625;"/><path d="M1679.6875,438.5 L1679.6875,461.9375 A7.8125,7.8125 0 0 0 1687.5,469.75 L1710.9375,469.75 " fill="#90EE90" style="stroke:#181818;stroke-width:1.5625;"/><text fill="#000000" font-family="SF Mono" font-size="37.5" lengthAdjust="spacing" textLength="196.875" x="1482.8125" y="505.4556">Cartelera</text></g><!--entity P1--><g id="elem_P1"><path d="M1212.5,866.0625 L1212.5,957.6885 A7.8125,7.8125 0 0 0 1220.3125,965.501 L1485.9375,965.501 A7.8125,7.8125 0 0 0 1493.75,957.6885 L1493.75,889.5 L1462.5,858.25 L1220.3125,858.25 A7.8125,7.8125 0 0 0 1212.5,866.0625 " fill="#90EE90" style="stroke:#181818;stroke-width:1.5625;"/><path d="M1462.5,858.25 L1462.5,881.6875 A7.8125,7.8125 0 0 0 1470.3125,889.5 L1493.75,889.5 " fill="#90EE90" style="stroke:#181818;stroke-width:1.5625;"/><text fill="#000000" font-family="SF Mono" font-size="37.5" lengthAdjust="spacing" textLength="218.75" x="1243.75" y="925.2056">Pel&#237;cula 1</text></g><!--entity P2--><g id="elem_P2"><path d="M1650,866.0625 L1650,957.6885 A7.8125,7.8125 0 0 0 1657.8125,965.501 L1923.4375,965.501 A7.8125,7.8125 0 0 0 1931.25,957.6885 L1931.25,889.5 L1900,858.25 L1657.8125,858.25 A7.8125,7.8125 0 0 0 1650,866.0625 " fill="#90EE90" style="stroke:#181818;stroke-width:1.5625;"/><path d="M1900,858.25 L1900,881.6875 A7.8125,7.8125 0 0 0 1907.8125,889.5 L1931.25,889.5 " fill="#90EE90" style="stroke:#181818;stroke-width:1.5625;"/><text fill="#000000" font-family="SF Mono" font-size="37.5" lengthAdjust="spacing" textLength="218.75" x="1681.25" y="925.2056">Pel&#237;cula 2</text></g><!--entity Trailer--><g id="elem_Trailer"><path d="M1223.4375,1285.8125 L1223.4375,1377.4385 A7.8125,7.8125 0 0 0 1231.25,1385.251 L1431.25,1385.251 A7.8125,7.8125 0 0 0 1439.0625,1377.4385 L1439.0625,1309.25 L1407.8125,1278 L1231.25,1278 A7.8125,7.8125 0 0 0 1223.4375,1285.8125 " fill="#F1F1F1" style="stroke:#181818;stroke-width:1.5625;"/><path d="M1407.8125,1278 L1407.8125,1301.4375 A7.8125,7.8125 0 0 0 1415.625,1309.25 L1439.0625,1309.25 " fill="#F1F1F1" style="stroke:#181818;stroke-width:1.5625;"/><text fill="#000000" font-family="SF Mono" font-size="37.5" lengthAdjust="spacing" textLength="153.125" x="1254.6875" y="1344.9556">Trailer</text></g><!--entity R1--><g id="elem_R1"><path d="M828.125,1285.8125 L828.125,1377.4385 A7.8125,7.8125 0 0 0 835.9375,1385.251 L1057.8125,1385.251 A7.8125,7.8125 0 0 0 1065.625,1377.4385 L1065.625,1309.25 L1034.375,1278 L835.9375,1278 A7.8125,7.8125 0 0 0 828.125,1285.8125 " fill="#F1F1F1" style="stroke:#181818;stroke-width:1.5625;"/><path d="M1034.375,1278 L1034.375,1301.4375 A7.8125,7.8125 0 0 0 1042.1875,1309.25 L1065.625,1309.25 " fill="#F1F1F1" style="stroke:#181818;stroke-width:1.5625;"/><text fill="#000000" font-family="SF Mono" font-size="37.5" lengthAdjust="spacing" textLength="175" x="859.375" y="1344.9556">Rese&#241;a 1</text></g><!--entity V--><g id="elem_V"><path d="M1595.3125,1285.8125 L1595.3125,1377.4385 A7.8125,7.8125 0 0 0 1603.125,1385.251 L2021.875,1385.251 A7.8125,7.8125 0 0 0 2029.6875,1377.4385 L2029.6875,1309.25 L1998.4375,1278 L1603.125,1278 A7.8125,7.8125 0 0 0 1595.3125,1285.8125 " fill="#F1F1F1" style="stroke:#181818;stroke-width:1.5625;"/><path d="M1998.4375,1278 L1998.4375,1301.4375 A7.8125,7.8125 0 0 0 2006.25,1309.25 L2029.6875,1309.25 " fill="#F1F1F1" style="stroke:#181818;stroke-width:1.5625;"/><text fill="#000000" font-family="SF Mono" font-size="37.5" lengthAdjust="spacing" textLength="371.875" x="1626.5625" y="1344.9556">Venta de entradas</text></g><!--entity Precios--><g id="elem_Precios"><path d="M2185.9375,1285.8125 L2185.9375,1377.4385 A7.8125,7.8125 0 0 0 2193.75,1385.251 L2393.75,1385.251 A7.8125,7.8125 0 0 0 2401.5625,1377.4385 L2401.5625,1309.25 L2370.3125,1278 L2193.75,1278 A7.8125,7.8125 0 0 0 2185.9375,1285.8125 " fill="#F1F1F1" style="stroke:#181818;stroke-width:1.5625;"/><path d="M2370.3125,1278 L2370.3125,1301.4375 A7.8125,7.8125 0 0 0 2378.125,1309.25 L2401.5625,1309.25 " fill="#F1F1F1" style="stroke:#181818;stroke-width:1.5625;"/><text fill="#000000" font-family="SF Mono" font-size="37.5" lengthAdjust="spacing" textLength="153.125" x="2217.1875" y="1344.9556">Precios</text></g><!--entity Promoci?ns--><g id="elem_Promoci&#243;ns"><path d="M2556.25,1285.8125 L2556.25,1377.4385 A7.8125,7.8125 0 0 0 2564.0625,1385.251 L2829.6875,1385.251 A7.8125,7.8125 0 0 0 2837.5,1377.4385 L2837.5,1309.25 L2806.25,1278 L2564.0625,1278 A7.8125,7.8125 0 0 0 2556.25,1285.8125 " fill="#F1F1F1" style="stroke:#181818;stroke-width:1.5625;"/><path d="M2806.25,1278 L2806.25,1301.4375 A7.8125,7.8125 0 0 0 2814.0625,1309.25 L2837.5,1309.25 " fill="#F1F1F1" style="stroke:#181818;stroke-width:1.5625;"/><text fill="#000000" font-family="SF Mono" font-size="37.5" lengthAdjust="spacing" textLength="218.75" x="2587.5" y="1344.9556">Promoci&#243;ns</text></g><!--entity Legal--><g id="elem_Legal"><path d="M2151.5625,446.3125 L2151.5625,537.9385 A7.8125,7.8125 0 0 0 2159.375,545.751 L2315.625,545.751 A7.8125,7.8125 0 0 0 2323.4375,537.9385 L2323.4375,469.75 L2292.1875,438.5 L2159.375,438.5 A7.8125,7.8125 0 0 0 2151.5625,446.3125 " fill="#F1F1F1" style="stroke:#181818;stroke-width:1.5625;"/><path d="M2292.1875,438.5 L2292.1875,461.9375 A7.8125,7.8125 0 0 0 2300,469.75 L2323.4375,469.75 " fill="#F1F1F1" style="stroke:#181818;stroke-width:1.5625;"/><text fill="#000000" font-family="SF Mono" font-size="37.5" lengthAdjust="spacing" textLength="109.375" x="2182.8125" y="505.4556">Legal</text></g><!--entity Privacidade--><g id="elem_Privacidade"><path d="M2085.9375,866.0625 L2085.9375,957.6885 A7.8125,7.8125 0 0 0 2093.75,965.501 L2381.25,965.501 A7.8125,7.8125 0 0 0 2389.0625,957.6885 L2389.0625,889.5 L2357.8125,858.25 L2093.75,858.25 A7.8125,7.8125 0 0 0 2085.9375,866.0625 " fill="#F1F1F1" style="stroke:#181818;stroke-width:1.5625;"/><path d="M2357.8125,858.25 L2357.8125,881.6875 A7.8125,7.8125 0 0 0 2365.625,889.5 L2389.0625,889.5 " fill="#F1F1F1" style="stroke:#181818;stroke-width:1.5625;"/><text fill="#000000" font-family="SF Mono" font-size="37.5" lengthAdjust="spacing" textLength="240.625" x="2117.1875" y="925.2056">Privacidade</text></g><!--entity FP--><g id="elem_FP"><path d="M2545.3125,866.0625 L2545.3125,957.6885 A7.8125,7.8125 0 0 0 2553.125,965.501 L2928.125,965.501 A7.8125,7.8125 0 0 0 2935.9375,957.6885 L2935.9375,889.5 L2904.6875,858.25 L2553.125,858.25 A7.8125,7.8125 0 0 0 2545.3125,866.0625 " fill="#F1F1F1" style="stroke:#181818;stroke-width:1.5625;"/><path d="M2904.6875,858.25 L2904.6875,881.6875 A7.8125,7.8125 0 0 0 2912.5,889.5 L2935.9375,889.5 " fill="#F1F1F1" style="stroke:#181818;stroke-width:1.5625;"/><text fill="#000000" font-family="SF Mono" font-size="37.5" lengthAdjust="spacing" textLength="328.125" x="2576.5625" y="925.2056">Fondos p&#250;blicos</text></g><!--entity Proxectos--><g id="elem_Proxectos"><path d="M2823.4375,446.3125 L2823.4375,537.9385 A7.8125,7.8125 0 0 0 2831.25,545.751 L3075,545.751 A7.8125,7.8125 0 0 0 3082.8125,537.9385 L3082.8125,469.75 L3051.5625,438.5 L2831.25,438.5 A7.8125,7.8125 0 0 0 2823.4375,446.3125 " fill="#F1F1F1" style="stroke:#181818;stroke-width:1.5625;"/><path d="M3051.5625,438.5 L3051.5625,461.9375 A7.8125,7.8125 0 0 0 3059.375,469.75 L3082.8125,469.75 " fill="#F1F1F1" style="stroke:#181818;stroke-width:1.5625;"/><text fill="#000000" font-family="SF Mono" font-size="37.5" lengthAdjust="spacing" textLength="196.875" x="2854.6875" y="505.4556">Proxectos</text></g><!--entity TN--><g id="elem_TN"><path d="M3090.625,866.0625 L3090.625,957.6885 A7.8125,7.8125 0 0 0 3098.4375,965.501 L3495.3125,965.501 A7.8125,7.8125 0 0 0 3503.125,957.6885 L3503.125,889.5 L3471.875,858.25 L3098.4375,858.25 A7.8125,7.8125 0 0 0 3090.625,866.0625 " fill="#F1F1F1" style="stroke:#181818;stroke-width:1.5625;"/><path d="M3471.875,858.25 L3471.875,881.6875 A7.8125,7.8125 0 0 0 3479.6875,889.5 L3503.125,889.5 " fill="#F1F1F1" style="stroke:#181818;stroke-width:1.5625;"/><text fill="#000000" font-family="SF Mono" font-size="37.5" lengthAdjust="spacing" textLength="350" x="3121.875" y="925.2056">Traballa con n&#243;s</text></g><!--link Index to Blog--><g id="link_Index_Blog"><path d="M1493.9063,57.125 C1252.9688,57.125 596.875,57.125 596.875,57.125 C596.875,57.125 596.875,301.2187 596.875,418.2812 " fill="none" id="Index-to-Blog" style="stroke:#181818;stroke-width:3.125;"/><polygon fill="#181818" points="596.875,437.0312,609.375,408.9062,596.875,421.4062,584.375,408.9062,596.875,437.0312" style="stroke:#181818;stroke-width:3.125;"/></g><!--link Blog to A1--><g id="link_Blog_A1"><path d="M520.6563,494.625 C395.3125,494.625 159.375,494.625 159.375,494.625 C159.375,494.625 159.375,725.4687 159.375,838.5625 " fill="none" id="Blog-to-A1" style="stroke:#181818;stroke-width:3.125;"/><polygon fill="#181818" points="159.375,857.3125,171.875,829.1875,159.375,841.6875,146.875,829.1875,159.375,857.3125" style="stroke:#181818;stroke-width:3.125;"/></g><!--link Blog to A2--><g id="link_Blog_A2"><path d="M596.875,547 C596.875,627.4375 596.875,757.7812 596.875,838.25 " fill="none" id="Blog-to-A2" style="stroke:#181818;stroke-width:3.125;"/><polygon fill="#181818" points="596.875,857,609.375,828.875,596.875,841.375,584.375,828.875,596.875,857" style="stroke:#181818;stroke-width:3.125;"/></g><!--link A1 to R1--><g id="link_A1_R1"><path d="M159.375,966.8125 C159.375,1080.7188 159.375,1332.125 159.375,1332.125 C159.375,1332.125 588.2188,1332.125 808.5313,1332.125 " fill="none" id="A1-to-R1" style="stroke:#181818;stroke-width:3.125;"/><polygon fill="#181818" points="827.2813,1332.125,799.1563,1319.625,811.6563,1332.125,799.1563,1344.625,827.2813,1332.125" style="stroke:#181818;stroke-width:3.125;"/></g><!--link Index to Rese?as--><g id="link_Index_Rese&#241;as"><path d="M1494.1563,91.5 C1350.9063,91.5 1081.25,91.5 1081.25,91.5 C1081.25,91.5 1081.25,308.7812 1081.25,418.5 " fill="none" id="Index-to-Rese&#241;as" style="stroke:#181818;stroke-width:3.125;"/><polygon fill="#181818" points="1081.25,437.25,1093.75,409.125,1081.25,421.625,1068.75,409.125,1081.25,437.25" style="stroke:#181818;stroke-width:3.125;"/></g><!--link Rese?as to R1--><g id="link_Rese&#241;as_R1"><path d="M1004.1563,547.2187 C1004.1563,699.6875 1004.1563,1107.2813 1004.1563,1258.6875 " fill="none" id="Rese&#241;as-to-R1" style="stroke:#181818;stroke-width:3.125;"/><polygon fill="#181818" points="1004.1563,1277.4375,1016.6563,1249.3125,1004.1563,1261.8125,991.6563,1249.3125,1004.1563,1277.4375" style="stroke:#181818;stroke-width:3.125;"/></g><!--link Index to Cartelera--><g id="link_Index_Cartelera"><path d="M1581.25,127.25 C1581.25,207.6875 1581.25,338.0312 1581.25,418.4687 " fill="none" id="Index-to-Cartelera" style="stroke:#181818;stroke-width:3.125;"/><polygon fill="#181818" points="1581.25,437.2187,1593.75,409.0937,1581.25,421.5937,1568.75,409.0937,1581.25,437.2187" style="stroke:#181818;stroke-width:3.125;"/></g><!--link Cartelera to P1--><g id="link_Cartelera_P1"><path d="M1472.6563,547 C1472.6563,627.4375 1472.6563,757.7812 1472.6563,838.25 " fill="none" id="Cartelera-to-P1" style="stroke:#181818;stroke-width:3.125;"/><polygon fill="#181818" points="1472.6563,857,1485.1563,828.875,1472.6563,841.375,1460.1563,828.875,1472.6563,857" style="stroke:#181818;stroke-width:3.125;"/></g><!--link Cartelera to P2--><g id="link_Cartelera_P2"><path d="M1680.4688,547 C1680.4688,627.4375 1680.4688,757.7812 1680.4688,838.25 " fill="none" id="Cartelera-to-P2" style="stroke:#181818;stroke-width:3.125;"/><polygon fill="#181818" points="1680.4688,857,1692.9688,828.875,1680.4688,841.375,1667.9688,828.875,1680.4688,857" style="stroke:#181818;stroke-width:3.125;"/></g><!--link P1 to V--><g id="link_P1_V"><path d="M1466.4063,966.8125 C1466.4063,1080.7188 1466.4063,1332.125 1466.4063,1332.125 C1466.4063,1332.125 1506.4375,1332.125 1575.5313,1332.125 " fill="none" id="P1-to-V" style="stroke:#181818;stroke-width:3.125;"/><polygon fill="#181818" points="1594.2813,1332.125,1566.1563,1319.625,1578.6563,1332.125,1566.1563,1344.625,1594.2813,1332.125" style="stroke:#181818;stroke-width:3.125;"/></g><!--link P2 to V--><g id="link_P2_V"><path d="M1790.625,966.75 C1790.625,1047.1875 1790.625,1177.5312 1790.625,1258 " fill="none" id="P2-to-V" style="stroke:#181818;stroke-width:3.125;"/><polygon fill="#181818" points="1790.625,1276.75,1803.125,1248.625,1790.625,1261.125,1778.125,1248.625,1790.625,1276.75" style="stroke:#181818;stroke-width:3.125;"/></g><!--link V to Precios--><g id="link_V_Precios"><path d="M2030.5938,1332.125 C2084.3125,1332.125 2120.7813,1332.125 2166.6875,1332.125 " fill="none" id="V-to-Precios" style="stroke:#181818;stroke-width:3.125;"/><polygon fill="#181818" points="2185.4375,1332.125,2157.3125,1319.625,2169.8125,1332.125,2157.3125,1344.625,2185.4375,1332.125" style="stroke:#181818;stroke-width:3.125;"/></g><!--link Precios to Promoci?ns--><g id="link_Precios_Promoci&#243;ns"><path d="M2402.8438,1332.125 C2449.9375,1332.125 2486.9063,1332.125 2537.0938,1332.125 " fill="none" id="Precios-to-Promoci&#243;ns" style="stroke:#181818;stroke-width:3.125;"/><polygon fill="#181818" points="2555.8438,1332.125,2527.7188,1319.625,2540.2188,1332.125,2527.7188,1344.625,2555.8438,1332.125" style="stroke:#181818;stroke-width:3.125;"/></g><!--link P1 to Trailer--><g id="link_P1_Trailer"><path d="M1331.25,966.75 C1331.25,1047.1875 1331.25,1177.5312 1331.25,1258 " fill="none" id="P1-to-Trailer" style="stroke:#181818;stroke-width:3.125;"/><polygon fill="#181818" points="1331.25,1276.75,1343.75,1248.625,1331.25,1261.125,1318.75,1248.625,1331.25,1276.75" style="stroke:#181818;stroke-width:3.125;"/></g><!--link P1 to R1--><g id="link_P1_R1"><path d="M1211.6875,913.375 C1126.6875,913.375 1034.9063,913.375 1034.9063,913.375 C1034.9063,913.375 1034.9063,1144.8125 1034.9063,1258.1875 " fill="none" id="P1-to-R1" style="stroke:#181818;stroke-width:3.125;"/><polygon fill="#181818" points="1034.9063,1276.9375,1047.4063,1248.8125,1034.9063,1261.3125,1022.4063,1248.8125,1034.9063,1276.9375" style="stroke:#181818;stroke-width:3.125;"/></g><!--link Index to Legal--><g id="link_Index_Legal"><path d="M1668.4063,91.5 C1846.9063,91.5 2237.5,91.5 2237.5,91.5 C2237.5,91.5 2237.5,308.7812 2237.5,418.5 " fill="none" id="Index-to-Legal" style="stroke:#181818;stroke-width:3.125;"/><polygon fill="#181818" points="2237.5,437.25,2250,409.125,2237.5,421.625,2225,409.125,2237.5,437.25" style="stroke:#181818;stroke-width:3.125;"/></g><!--link Legal to Privacidade--><g id="link_Legal_Privacidade"><path d="M2237.5,547 C2237.5,627.4375 2237.5,757.7812 2237.5,838.25 " fill="none" id="Legal-to-Privacidade" style="stroke:#181818;stroke-width:3.125;"/><polygon fill="#181818" points="2237.5,857,2250,828.875,2237.5,841.375,2225,828.875,2237.5,857" style="stroke:#181818;stroke-width:3.125;"/></g><!--link Legal to FP--><g id="link_Legal_FP"><path d="M2324.7188,494.625 C2454.7813,494.625 2684.375,494.625 2684.375,494.625 C2684.375,494.625 2684.375,725.4687 2684.375,838.5625 " fill="none" id="Legal-to-FP" style="stroke:#181818;stroke-width:3.125;"/><polygon fill="#181818" points="2684.375,857.3125,2696.875,829.1875,2684.375,841.6875,2671.875,829.1875,2684.375,857.3125" style="stroke:#181818;stroke-width:3.125;"/></g><!--link Index to Proxectos--><g id="link_Index_Proxectos"><path d="M1668.0938,57.125 C1969.6875,57.125 2953.125,57.125 2953.125,57.125 C2953.125,57.125 2953.125,301.2187 2953.125,418.2812 " fill="none" id="Index-to-Proxectos" style="stroke:#181818;stroke-width:3.125;"/><polygon fill="#181818" points="2953.125,437.0312,2965.625,408.9062,2953.125,421.4062,2940.625,408.9062,2953.125,437.0312" style="stroke:#181818;stroke-width:3.125;"/></g><!--link Proxectos to TN--><g id="link_Proxectos_TN"><path d="M3009.375,547.1875 C3009.375,661.375 3009.375,913.375 3009.375,913.375 C3009.375,913.375 3025.375,913.375 3070.7188,913.375 " fill="none" id="Proxectos-to-TN" style="stroke:#181818;stroke-width:3.125;"/><polygon fill="#181818" points="3089.4688,913.375,3061.3438,900.875,3073.8438,913.375,3061.3438,925.875,3089.4688,913.375" style="stroke:#181818;stroke-width:3.125;"/></g><!--SRC=[VL5DImCn4BtdLmprN6XMl0fLA0XQbhRiVRgPjg5ficHJgOe_oOFqvdN_cDbDzWCjlIIJDs_UPDwKUwaBj7W0KKYudKnOsI5AQd9l1O6nRcS62Mq4bLJ0tP1jKUzha7kD0IneWqVbFXZ0p6WtnmF1SWOlHfi8BUKx0K_O9sCRgGYUjA1JZ1-KsSADajkTMwiZ1N0qjQxwoe_A01y1bZ3brpX9u2H3JY0j_1JLDvRn-OZMaIABaRcrH3hAfQGQEOmjKtwL57gcoN_IogA_RAo8FuYY2nxXZBH3RntuswB0iabd8PjQogKfsuSvc5nMPzrEyKnRL6rIlc8k1OhM5U-tC2KKrSzQoTm4tLdAEh4JvQxL7lc_hb7vSNAZGLVdG5_D6Mjs1EFnVRCXrgofVatv84wONqmT-Ra65PthRN21qws2zKkfyPJ_1HAMXYOPytQ788Cw4ssATu1wis9Lkuxqqa-3bSqPcWtyxD7Qlhwczx2BGgCv-mK0]--></g></svg>