<?xml version="1.0" encoding="us-ascii" standalone="no"?><svg xmlns="http://www.w3.org/2000/svg" xmlns:xlink="http://www.w3.org/1999/xlink" contentStyleType="text/css" height="1031.25px" preserveAspectRatio="none" style="width:2403px;height:1031px;background:#FFFFFF;" version="1.1" viewBox="0 0 2403 1031" width="2403.125px" zoomAndPan="magnify"><defs/><g><!--entity I--><g id="elem_I"><rect fill="#F1F1F1" height="108.252" rx="7.8125" ry="7.8125" style="stroke:#181818;stroke-width:1.5625;" width="259.375" x="1056.25" y="486.375"/><text fill="#000000" font-family="SF Mono" font-size="37.5" lengthAdjust="spacing" textLength="131.25" x="1087.5" y="531.4556">P&#225;xina</text><text fill="#000000" font-family="SF Mono" font-size="37.5" lengthAdjust="spacing" textLength="196.875" x="1087.5" y="576.2065">principal</text></g><!--entity Cartelera--><g id="elem_Cartelera"><rect fill="#F1F1F1" height="63.501" rx="7.8125" ry="7.8125" style="stroke:#181818;stroke-width:1.5625;" width="259.375" x="21.875" y="66.125"/><text fill="#000000" font-family="SF Mono" font-size="37.5" lengthAdjust="spacing" textLength="196.875" x="53.125" y="111.2056">Cartelera</text></g><!--entity Contacto--><g id="elem_Contacto"><rect fill="#F1F1F1" height="63.501" rx="7.8125" ry="7.8125" style="stroke:#181818;stroke-width:1.5625;" width="237.5" x="89.0625" y="929.5"/><text fill="#000000" font-family="SF Mono" font-size="37.5" lengthAdjust="spacing" textLength="175" x="120.3125" y="974.5806">Contacto</text></g><!--entity Venta--><g id="elem_Venta"><rect fill="#F1F1F1" height="108.252" rx="7.8125" ry="7.8125" style="stroke:#181818;stroke-width:1.5625;" width="237.5" x="482.8125" y="907.125"/><text fill="#000000" font-family="SF Mono" font-size="37.5" lengthAdjust="spacing" textLength="175" x="514.0625" y="952.2056">Venta de</text><text fill="#000000" font-family="SF Mono" font-size="37.5" lengthAdjust="spacing" textLength="175" x="514.0625" y="996.9565">entradas</text></g><!--entity Precios--><g id="elem_Precios"><rect fill="#F1F1F1" height="63.501" rx="7.8125" ry="7.8125" style="stroke:#181818;stroke-width:1.5625;" width="215.625" x="878.125" y="929.5"/><text fill="#000000" font-family="SF Mono" font-size="37.5" lengthAdjust="spacing" textLength="153.125" x="909.375" y="974.5806">Precios</text></g><!--entity Promoci?ns--><g id="elem_Promoci&#243;ns"><rect fill="#F1F1F1" height="63.501" rx="7.8125" ry="7.8125" style="stroke:#181818;stroke-width:1.5625;" width="281.25" x="1248.4375" y="929.5"/><text fill="#000000" font-family="SF Mono" font-size="37.5" lengthAdjust="spacing" textLength="218.75" x="1279.6875" y="974.5806">Promoci&#243;ns</text></g><!--entity Proxectos--><g id="elem_Proxectos"><rect fill="#F1F1F1" height="63.501" rx="7.8125" ry="7.8125" style="stroke:#181818;stroke-width:1.5625;" width="259.375" x="437.5" y="66.125"/><text fill="#000000" font-family="SF Mono" font-size="37.5" lengthAdjust="spacing" textLength="196.875" x="468.75" y="111.2056">Proxectos</text></g><!--entity Traballa--><g id="elem_Traballa"><rect fill="#F1F1F1" height="108.252" rx="7.8125" ry="7.8125" style="stroke:#181818;stroke-width:1.5625;" width="237.5" x="854.6875" y="43.75"/><text fill="#000000" font-family="SF Mono" font-size="37.5" lengthAdjust="spacing" textLength="175" x="885.9375" y="88.8306">Traballa</text><text fill="#000000" font-family="SF Mono" font-size="37.5" lengthAdjust="spacing" textLength="153.125" x="885.9375" y="133.5815">con n&#243;s</text></g><!--entity Privacidade--><g id="elem_Privacidade"><rect fill="#F1F1F1" height="63.501" rx="7.8125" ry="7.8125" style="stroke:#181818;stroke-width:1.5625;" width="303.125" x="1250" y="66.125"/><text fill="#000000" font-family="SF Mono" font-size="37.5" lengthAdjust="spacing" textLength="240.625" x="1281.25" y="111.2056">Privacidade</text></g><!--entity Fondos--><g id="elem_Fondos"><rect fill="#F1F1F1" height="108.252" rx="7.8125" ry="7.8125" style="stroke:#181818;stroke-width:1.5625;" width="237.5" x="1685.9375" y="907.125"/><text fill="#000000" font-family="SF Mono" font-size="37.5" lengthAdjust="spacing" textLength="131.25" x="1717.1875" y="952.2056">Fondos</text><text fill="#000000" font-family="SF Mono" font-size="37.5" lengthAdjust="spacing" textLength="175" x="1717.1875" y="996.9565">p&#250;blicos</text></g><!--entity Peliculas--><g id="elem_Peliculas"><rect fill="#F1F1F1" height="139.502" rx="7.8125" ry="7.8125" style="stroke:#181818;stroke-width:1.5625;" width="290.625" x="1721.875" y="34.375"/><rect fill="#F1F1F1" height="139.502" rx="7.8125" ry="7.8125" style="stroke:#181818;stroke-width:1.5625;" width="290.625" x="1709.375" y="21.875"/><text fill="#000000" font-family="SF Mono" font-size="37.5" lengthAdjust="spacing" textLength="240.625" x="1734.375" y="82.5806">Informaci&#243;n</text><text fill="#000000" font-family="SF Mono" font-size="37.5" lengthAdjust="spacing" textLength="196.875" x="1734.375" y="127.3315">peliculas</text></g><!--entity Blog--><g id="elem_Blog"><rect fill="#F1F1F1" height="94.751" rx="7.8125" ry="7.8125" style="stroke:#181818;stroke-width:1.5625;" width="137.5" x="2092.1875" y="920.125"/><rect fill="#F1F1F1" height="94.751" rx="7.8125" ry="7.8125" style="stroke:#181818;stroke-width:1.5625;" width="137.5" x="2079.6875" y="907.625"/><text fill="#000000" font-family="SF Mono" font-size="37.5" lengthAdjust="spacing" textLength="87.5" x="2104.6875" y="968.3306">Blog</text></g><!--entity Rese?as--><g id="elem_Rese&#241;as"><rect fill="#F1F1F1" height="94.751" rx="7.8125" ry="7.8125" style="stroke:#181818;stroke-width:1.5625;" width="203.125" x="2181.25" y="56.75"/><rect fill="#F1F1F1" height="94.751" rx="7.8125" ry="7.8125" style="stroke:#181818;stroke-width:1.5625;" width="203.125" x="2168.75" y="44.25"/><text fill="#000000" font-family="SF Mono" font-size="37.5" lengthAdjust="spacing" textLength="153.125" x="2193.75" y="104.9556">Rese&#241;as</text></g><!--link Cartelera to I--><g id="link_Cartelera_I"><path d="M222.6563,131 C396.0938,204.1563 842.7188,392.5625 1061.4688,484.8438 " fill="none" id="Cartelera-I" style="stroke:#181818;stroke-width:3.125;"/></g><!--link Peliculas to I--><g id="link_Peliculas_I"><path d="M1746.4375,175.0312 C1610.2813,263.0313 1386.4688,407.75 1267,484.9688 " fill="none" id="Peliculas-I" style="stroke:#181818;stroke-width:3.125;"/></g><!--link Proxectos to I--><g id="link_Proxectos_I"><path d="M609.7188,131 C713.4688,204.1563 980.625,392.5625 1111.4688,484.8438 " fill="none" id="Proxectos-I" style="stroke:#181818;stroke-width:3.125;"/></g><!--link Rese?as to I--><g id="link_Rese&#241;as_I"><path d="M2168,144.4375 C1966.2188,225.1563 1534.2188,398.0313 1316.7188,485.0313 " fill="none" id="Rese&#241;as-I" style="stroke:#181818;stroke-width:3.125;"/></g><!--link Traballa to I--><g id="link_Traballa_I"><path d="M998.6563,152.7813 C1039.5313,236.75 1119.875,401.7188 1160.75,485.6563 " fill="none" id="Traballa-I" style="stroke:#181818;stroke-width:3.125;"/></g><!--link Privacidade to I--><g id="link_Privacidade_I"><path d="M1386.75,131 C1350.5938,204.1563 1257.5,392.5625 1211.875,484.8438 " fill="none" id="Privacidade-I" style="stroke:#181818;stroke-width:3.125;"/></g><!--link I to Venta--><g id="link_I_Venta"><path d="M1111.9375,596.125 C999.5313,675.8438 787.0313,826.5625 674.9688,906.0625 " fill="none" id="I-Venta" style="stroke:#181818;stroke-width:3.125;"/></g><!--link I to Precios--><g id="link_I_Precios"><path d="M1160.5938,596.125 C1118.1563,684.125 1033.9375,858.625 1000.3125,928.3438 " fill="none" id="I-Precios" style="stroke:#181818;stroke-width:3.125;"/></g><!--link I to Promoci?ns--><g id="link_I_Promoci&#243;ns"><path d="M1211.6563,596.125 C1254.7813,684.125 1340.3125,858.625 1374.4688,928.3438 " fill="none" id="I-Promoci&#243;ns" style="stroke:#181818;stroke-width:3.125;"/></g><!--link I to Contacto--><g id="link_I_Contacto"><path d="M1062.0625,596.125 C854.375,684.125 442.5625,858.625 278.0938,928.3438 " fill="none" id="I-Contacto" style="stroke:#181818;stroke-width:3.125;"/></g><!--link I to Blog--><g id="link_I_Blog"><path d="M1308.625,596.125 C1511.7813,683.0313 1912.125,854.3438 2078.9375,925.7188 " fill="none" id="I-Blog" style="stroke:#181818;stroke-width:3.125;"/></g><!--link I to Fondos--><g id="link_I_Fondos"><path d="M1264.3125,596.125 C1383.3125,675.8438 1608.3125,826.5625 1726.9688,906.0625 " fill="none" id="I-Fondos" style="stroke:#181818;stroke-width:3.125;"/></g><!--SRC=[LP5DJWCn38NtEONL3QjABOWBW5If2r154Qjkt2I5g1bxb4nH0N4OZe2wOpiNmytFj5t5xukVOpjnwwZ5W0sOri7DPAAkue2y8zjzj1OuT6-iJXV4naRRmkta30QaxH5EfSWPDdQ3EzzzAO0PK_U8ZONb31wOkA2b-xGmlLRVIcaC1aQB_cVl25VK1aVQjUX7W17cvVuUGsUz3LYab43TSJ6_M97oweea26Wm9dF2EMKHh7OSg-26jUiFT09xA-MA73q7NAFtqerc0keFkLx5ghhSEsfdqDZYayaCHvcX_rjxfpdRCXKJUo-lEAO8epbjE3IOkX23bVITBtqlghgmt7b-lG1FyX_zhsIfOJim7ilA1d-HTReigoshEbDD7KRAO7uyyXvJMFTOn6cF2GpVabHgE4Lb0_y0]--></g></svg>