<?xml version="1.0" encoding="us-ascii" standalone="no"?><svg xmlns="http://www.w3.org/2000/svg" xmlns:xlink="http://www.w3.org/1999/xlink" contentStyleType="text/css" height="210px" preserveAspectRatio="none" style="width:1624px;height:210px;background:#FFFFFF;" version="1.1" viewBox="0 0 1624 210" width="1624px" zoomAndPan="magnify"><defs/><g><!--entity U--><g id="elem_U"><ellipse cx="82.58" cy="14" fill="#F1F1F1" rx="8" ry="8" style="stroke:#181818;stroke-width:0.5;"/><path d="M82.58,22 L82.58,49 M69.58,30 L95.58,30 M82.58,49 L69.58,64 M82.58,49 L95.58,64 " fill="none" style="stroke:#181818;stroke-width:0.5;"/><text fill="#000000" font-family="sans-serif" font-size="14" lengthAdjust="spacing" textLength="49" x="58.08" y="78.5059">Usuario</text></g><!--entity SC--><g id="elem_SC"><ellipse cx="1350.58" cy="14" fill="#F1F1F1" rx="8" ry="8" style="stroke:#181818;stroke-width:0.5;"/><path d="M1350.58,22 L1350.58,49 M1337.58,30 L1363.58,30 M1350.58,49 L1337.58,64 M1350.58,49 L1363.58,64 " fill="none" style="stroke:#181818;stroke-width:0.5;"/><text fill="#000000" font-family="sans-serif" font-size="14" lengthAdjust="spacing" textLength="87" x="1307.08" y="78.5059">Sistema pago</text></g><!--entity C--><g id="elem_C"><ellipse cx="1539.58" cy="14" fill="#F1F1F1" rx="8" ry="8" style="stroke:#181818;stroke-width:0.5;"/><path d="M1539.58,22 L1539.58,49 M1526.58,30 L1552.58,30 M1539.58,49 L1526.58,64 M1539.58,49 L1552.58,64 " fill="none" style="stroke:#181818;stroke-width:0.5;"/><text fill="#000000" font-family="sans-serif" font-size="14" lengthAdjust="spacing" textLength="29" x="1525.08" y="78.5059">Cine</text></g><g id="elem_1"><ellipse cx="82.584" cy="181.7168" fill="#F1F1F1" rx="76.584" ry="17.7168" style="stroke:#181818;stroke-width:0.5;"/><text fill="#000000" font-family="sans-serif" font-size="14" lengthAdjust="spacing" textLength="106" x="26.584" y="185.4698">comprar entrada</text></g><g id="elem_2"><ellipse cx="320.5785" cy="181.7197" fill="#F1F1F1" rx="84.0485" ry="19.2097" style="stroke:#181818;stroke-width:0.5;"/><text fill="#000000" font-family="sans-serif" font-size="14" lengthAdjust="spacing" textLength="125" x="255.0785" y="185.4727">seleccionar pel&#237;cula</text></g><g id="elem_3"><ellipse cx="1163.5753" cy="181.7231" fill="#F1F1F1" rx="76.9653" ry="17.7931" style="stroke:#181818;stroke-width:0.5;"/><text fill="#000000" font-family="sans-serif" font-size="14" lengthAdjust="spacing" textLength="107" x="1107.0753" y="185.476">seleccionar pase</text></g><g id="elem_4"><ellipse cx="976.5836" cy="181.7247" fill="#F1F1F1" rx="75.0736" ry="17.4147" style="stroke:#181818;stroke-width:0.5;"/><text fill="#000000" font-family="sans-serif" font-size="14" lengthAdjust="spacing" textLength="102" x="922.5836" y="185.4777">seleccionar sala</text></g><g id="elem_5"><ellipse cx="766.5784" cy="181.7217" fill="#F1F1F1" rx="100.1084" ry="22.4217" style="stroke:#181818;stroke-width:0.5;"/><text fill="#000000" font-family="sans-serif" font-size="14" lengthAdjust="spacing" textLength="163" x="683.7232" y="184.8923">proveer informaci&#243;n pago</text></g><g id="elem_6"><ellipse cx="514.5798" cy="181.72" fill="#F1F1F1" rx="74.6998" ry="17.34" style="stroke:#181818;stroke-width:0.5;"/><text fill="#000000" font-family="sans-serif" font-size="14" lengthAdjust="spacing" textLength="101" x="461.0798" y="185.4729">tramitar compra</text></g><g id="elem_7"><ellipse cx="1350.579" cy="181.7198" fill="#F1F1F1" rx="75.449" ry="17.4898" style="stroke:#181818;stroke-width:0.5;"/><text fill="#000000" font-family="sans-serif" font-size="14" lengthAdjust="spacing" textLength="103" x="1296.079" y="185.4728">procesar pedido</text></g><g id="elem_8"><ellipse cx="1539.5821" cy="181.7184" fill="#F1F1F1" rx="78.8921" ry="18.1784" style="stroke:#181818;stroke-width:0.5;"/><text fill="#000000" font-family="sans-serif" font-size="14" lengthAdjust="spacing" textLength="112" x="1480.5821" y="185.4714">confirmar compra</text></g><!--link U to 1--><g id="link_U_1"><path d="M82.58,82.73 C82.58,109.26 82.58,137.47 82.58,157.65 " fill="none" id="U-to-1" style="stroke:#181818;stroke-width:1.0;"/><polygon fill="#181818" points="82.58,163.65,86.58,154.65,82.58,158.65,78.58,154.65,82.58,163.65" style="stroke:#181818;stroke-width:1.0;"/></g><!--link SC to 7--><g id="link_SC_7"><path d="M1350.58,82.73 C1350.58,109.42 1350.58,137.87 1350.58,158.01 " fill="none" id="SC-to-7" style="stroke:#181818;stroke-width:1.0;"/><polygon fill="#181818" points="1350.58,164.01,1354.58,155.01,1350.58,159.01,1346.58,155.01,1350.58,164.01" style="stroke:#181818;stroke-width:1.0;"/></g><!--link C to 8--><g id="link_C_8"><path d="M1539.58,82.73 C1539.58,109.1 1539.58,137.06 1539.58,157.29 " fill="none" id="C-to-8" style="stroke:#181818;stroke-width:1.0;"/><polygon fill="#181818" points="1539.58,163.29,1543.58,154.29,1539.58,158.29,1535.58,154.29,1539.58,163.29" style="stroke:#181818;stroke-width:1.0;"/></g><!--link 1 to 2--><g id="link_1_2"><path d="M159.53,181.72 C183.97,181.72 205.14,181.72 230.09,181.72 " fill="none" id="1-to-2" style="stroke:#181818;stroke-width:1.0;stroke-dasharray:7.0,7.0;"/><polygon fill="#181818" points="236.09,181.72,227.09,177.72,231.09,181.72,227.09,185.72,236.09,181.72" style="stroke:#181818;stroke-width:1.0;"/><text fill="#000000" font-family="sans-serif" font-size="13" lengthAdjust="spacing" textLength="41" x="177.35" y="174.797">include</text></g><!--link 1 to 6--><g id="link_1_6"><path d="M114.98,165.25 C160.49,144.07 246.19,111.24 321.08,122.45 C376.68,130.77 432.7629,149.7045 471.2029,164.3445 " fill="none" id="1-to-6" style="stroke:#181818;stroke-width:1.0;stroke-dasharray:7.0,7.0;"/><polygon fill="#181818" points="476.81,166.48,469.823,159.5387,472.1374,164.7004,466.9757,167.0148,476.81,166.48" style="stroke:#181818;stroke-width:1.0;"/><text fill="#000000" font-family="sans-serif" font-size="13" lengthAdjust="spacing" textLength="41" x="279.08" y="125.377">include</text></g><!--link 2 to 3--><g id="link_2_3"><path d="M378.57,167.42 C392.88,164.32 408.23,161.36 422.58,159.3 C549.65,141.04 872.63,100.36 999.08,122.45 C1045.73,130.6 1091.1305,148.3757 1123.7705,162.9357 " fill="none" id="2-to-3" style="stroke:#181818;stroke-width:1.0;stroke-dasharray:7.0,7.0;"/><polygon fill="#181818" points="1129.25,165.38,1122.6602,158.0605,1124.6837,163.3431,1119.4012,165.3666,1129.25,165.38" style="stroke:#181818;stroke-width:1.0;"/><text fill="#000000" font-family="sans-serif" font-size="13" lengthAdjust="spacing" textLength="41" x="957.08" y="125.377">include</text></g><!--link 2 to 4--><g id="link_2_4"><path d="M379.14,167.54 C393.3,164.48 408.43,161.5 422.58,159.3 C519.65,144.19 767.68,99.04 863.08,122.45 C896.33,130.61 925.6323,147.1102 947.7023,161.5802 " fill="none" id="2-to-4" style="stroke:#181818;stroke-width:1.0;stroke-dasharray:7.0,7.0;"/><polygon fill="#181818" points="952.72,164.87,947.3867,156.5902,948.5386,162.1285,943.0003,163.2804,952.72,164.87" style="stroke:#181818;stroke-width:1.0;"/><text fill="#000000" font-family="sans-serif" font-size="13" lengthAdjust="spacing" textLength="41" x="821.08" y="125.377">include</text></g><!--link 6 to 3--><g id="link_6_3"><path d="M530.24,164.41 C544.48,150.06 566.92,130.72 591.08,122.45 C609.17,116.27 614.99,121.64 634.08,122.45 C828.16,130.65 877.8,128.49 1069.58,159.3 C1083.66,161.56 1092.9237,163.3982 1106.8037,166.7082 " fill="none" id="6-to-3" style="stroke:#181818;stroke-width:1.0;stroke-dasharray:7.0,7.0;"/><polygon fill="#181818" points="1112.64,168.1,1104.8134,162.1214,1107.7764,166.9402,1102.9576,169.9032,1112.64,168.1" style="stroke:#181818;stroke-width:1.0;"/><text fill="#000000" font-family="sans-serif" font-size="13" lengthAdjust="spacing" textLength="41" x="592.08" y="125.377">include</text></g><!--link 6 to 4--><g id="link_6_4"><path d="M549.95,166.03 C605.27,143.44 715.73,106.16 810.08,122.45 C857.71,130.67 904.2624,148.7838 937.2624,163.3738 " fill="none" id="6-to-4" style="stroke:#181818;stroke-width:1.0;stroke-dasharray:7.0,7.0;"/><polygon fill="#181818" points="942.75,165.8,936.1361,158.5023,938.177,163.7782,932.9012,165.8191,942.75,165.8" style="stroke:#181818;stroke-width:1.0;"/><text fill="#000000" font-family="sans-serif" font-size="13" lengthAdjust="spacing" textLength="41" x="768.08" y="125.377">include</text></g><!--link 6 to 5--><g id="link_6_5"><path d="M589.51,181.72 C613.59,181.72 634.67,181.72 660.28,181.72 " fill="none" id="6-to-5" style="stroke:#181818;stroke-width:1.0;stroke-dasharray:7.0,7.0;"/><polygon fill="#181818" points="666.28,181.72,657.28,177.72,661.28,181.72,657.28,185.72,666.28,181.72" style="stroke:#181818;stroke-width:1.0;"/><text fill="#000000" font-family="sans-serif" font-size="13" lengthAdjust="spacing" textLength="41" x="607.38" y="174.797">include</text></g><!--link 6 to 7--><g id="link_6_7"><path d="M541.21,165.14 C566.19,150.62 605.14,130.62 642.08,122.45 C660.74,118.33 665.98,121.84 685.08,122.45 C939.92,130.64 1005.49,121.09 1257.58,159.3 C1271.87,161.46 1281.3588,163.337 1295.3488,166.727 " fill="none" id="6-to-7" style="stroke:#181818;stroke-width:1.0;stroke-dasharray:7.0,7.0;"/><polygon fill="#181818" points="1301.18,168.14,1293.3751,162.133,1296.3206,166.9625,1291.4911,169.908,1301.18,168.14" style="stroke:#181818;stroke-width:1.0;"/><text fill="#000000" font-family="sans-serif" font-size="13" lengthAdjust="spacing" textLength="41" x="643.08" y="125.377">include</text></g><!--link 6 to 8--><g id="link_6_8"><path d="M552.56,166.48 C591.21,151.84 653.22,130.77 709.08,122.45 C870.73,98.37 1281.79,136.27 1443.58,159.3 C1457.99,161.35 1467.5662,163.15 1481.7462,166.45 " fill="none" id="6-to-8" style="stroke:#181818;stroke-width:1.0;stroke-dasharray:7.0,7.0;"/><polygon fill="#181818" points="1487.59,167.81,1479.7309,161.8741,1482.7201,166.6767,1477.9176,169.6659,1487.59,167.81" style="stroke:#181818;stroke-width:1.0;"/><text fill="#000000" font-family="sans-serif" font-size="13" lengthAdjust="spacing" textLength="41" x="710.08" y="125.377">include</text></g><!--SRC=[TP11Zi8m34NtEONLFIDHe4MpOCCHK0zWkGPPQfCgQRaLAux0nSPDPjHGCQjMxtrRtq4QdOScJEZ50GPem61anKN2o3t2W3TNpEfo_dDdiJmJ1MOAJ1WO2dBzuD43sz5ZYt5ak-Z07HE9inePk7izQEfIgFmdf2JwtMSVy7T-l_Z1kpkp1x5NvtiaUJtjSi1X2Mh5NaRTabf7NRtj8GwnQIjjcgxpK-rLTF_R-D6O1ZQRanwjBpN_r2PzrMpXwmGbV6ipwgQM4wWoOCgPx38ImJwFLEj8jOv4S5Y3UWsE6VW1]--></g></svg>