<?xml version="1.0" encoding="us-ascii" standalone="no"?><svg xmlns="http://www.w3.org/2000/svg" xmlns:xlink="http://www.w3.org/1999/xlink" contentStyleType="text/css" height="363px" preserveAspectRatio="none" style="width:965px;height:363px;background:#FFFFFF;" version="1.1" viewBox="0 0 965 363" width="965px" zoomAndPan="magnify"><defs/><g><!--entity U--><g id="elem_U"><ellipse cx="84.45" cy="14" fill="#F1F1F1" rx="8" ry="8" style="stroke:#181818;stroke-width:0.5;"/><path d="M84.45,22 L84.45,49 M71.45,30 L97.45,30 M84.45,49 L71.45,64 M84.45,49 L97.45,64 " fill="none" style="stroke:#181818;stroke-width:0.5;"/><text fill="#000000" font-family="sans-serif" font-size="14" lengthAdjust="spacing" textLength="49" x="59.95" y="78.5059">Usuario</text></g><!--entity SC--><g id="elem_SC"><ellipse cx="239.45" cy="167.8" fill="#F1F1F1" rx="8" ry="8" style="stroke:#181818;stroke-width:0.5;"/><path d="M239.45,175.8 L239.45,202.8 M226.45,183.8 L252.45,183.8 M239.45,202.8 L226.45,217.8 M239.45,202.8 L252.45,217.8 " fill="none" style="stroke:#181818;stroke-width:0.5;"/><text fill="#000000" font-family="sans-serif" font-size="14" lengthAdjust="spacing" textLength="87" x="195.95" y="232.3059">Sistema pago</text></g><!--entity C--><g id="elem_C"><ellipse cx="541.45" cy="167.8" fill="#F1F1F1" rx="8" ry="8" style="stroke:#181818;stroke-width:0.5;"/><path d="M541.45,175.8 L541.45,202.8 M528.45,183.8 L554.45,183.8 M541.45,202.8 L528.45,217.8 M541.45,202.8 L554.45,217.8 " fill="none" style="stroke:#181818;stroke-width:0.5;"/><text fill="#000000" font-family="sans-serif" font-size="14" lengthAdjust="spacing" textLength="29" x="526.95" y="232.3059">Cine</text></g><g id="elem_1"><ellipse cx="84.454" cy="197.6968" fill="#F1F1F1" rx="76.584" ry="17.7168" style="stroke:#181818;stroke-width:0.5;"/><text fill="#000000" font-family="sans-serif" font-size="14" lengthAdjust="spacing" textLength="106" x="28.454" y="201.4498">comprar entrada</text></g><g id="elem_2"><ellipse cx="684.4485" cy="197.6997" fill="#F1F1F1" rx="84.0485" ry="19.2097" style="stroke:#181818;stroke-width:0.5;"/><text fill="#000000" font-family="sans-serif" font-size="14" lengthAdjust="spacing" textLength="125" x="618.9485" y="201.4527">seleccionar pel&#237;cula</text></g><g id="elem_3"><ellipse cx="882.4453" cy="335.5231" fill="#F1F1F1" rx="76.9653" ry="17.7931" style="stroke:#181818;stroke-width:0.5;"/><text fill="#000000" font-family="sans-serif" font-size="14" lengthAdjust="spacing" textLength="107" x="825.9453" y="339.276">seleccionar pase</text></g><g id="elem_4"><ellipse cx="695.4536" cy="335.5247" fill="#F1F1F1" rx="75.0736" ry="17.4147" style="stroke:#181818;stroke-width:0.5;"/><text fill="#000000" font-family="sans-serif" font-size="14" lengthAdjust="spacing" textLength="102" x="641.4536" y="339.2777">seleccionar sala</text></g><g id="elem_5"><ellipse cx="292.4484" cy="335.5217" fill="#F1F1F1" rx="100.1084" ry="22.4217" style="stroke:#181818;stroke-width:0.5;"/><text fill="#000000" font-family="sans-serif" font-size="14" lengthAdjust="spacing" textLength="163" x="209.5932" y="338.6923">proveer informaci&#243;n pago</text></g><g id="elem_6"><ellipse cx="392.4498" cy="197.7" fill="#F1F1F1" rx="74.6998" ry="17.34" style="stroke:#181818;stroke-width:0.5;"/><text fill="#000000" font-family="sans-serif" font-size="14" lengthAdjust="spacing" textLength="101" x="338.9498" y="201.4529">tramitar compra</text></g><g id="elem_7"><ellipse cx="81.449" cy="335.5198" fill="#F1F1F1" rx="75.449" ry="17.4898" style="stroke:#181818;stroke-width:0.5;"/><text fill="#000000" font-family="sans-serif" font-size="14" lengthAdjust="spacing" textLength="103" x="26.949" y="339.2728">procesar pedido</text></g><g id="elem_8"><ellipse cx="506.4521" cy="335.5184" fill="#F1F1F1" rx="78.8921" ry="18.1784" style="stroke:#181818;stroke-width:0.5;"/><text fill="#000000" font-family="sans-serif" font-size="14" lengthAdjust="spacing" textLength="112" x="447.4521" y="339.2714">confirmar compra</text></g><!--link U to 1--><g id="link_U_1"><path d="M84.45,82.42 C84.45,113.5 84.45,150.23 84.45,173.64 " fill="none" id="U-to-1" style="stroke:#181818;stroke-width:1.0;"/><polygon fill="#181818" points="84.45,179.64,88.45,170.64,84.45,174.64,80.45,170.64,84.45,179.64" style="stroke:#181818;stroke-width:1.0;"/></g><!--link SC to 7--><g id="link_SC_7"><path d="M195.86,236.17 C164.43,263.18 128.1392,294.3779 104.7192,314.5179 " fill="none" id="SC-to-7" style="stroke:#181818;stroke-width:1.0;"/><polygon fill="#181818" points="100.17,318.43,109.6019,315.5947,103.961,315.1699,104.3858,309.529,100.17,318.43" style="stroke:#181818;stroke-width:1.0;"/></g><!--link C to 8--><g id="link_C_8"><path d="M531.7,236.53 C524.9,262.9 517.6464,291.0496 512.4364,311.2796 " fill="none" id="C-to-8" style="stroke:#181818;stroke-width:1.0;"/><polygon fill="#181818" points="510.94,317.09,517.0582,309.372,512.187,312.248,509.311,307.3768,510.94,317.09" style="stroke:#181818;stroke-width:1.0;"/></g><!--link 1 to 2--><g id="link_1_2"><path d="M103.21,180.17 C123.69,162.33 158.35,135.84 193.95,125.11 C231.06,113.93 282.46,95.1 573.45,159.3 C596.85,164.46 616.5321,170.863 637.0621,178.563 " fill="none" id="1-to-2" style="stroke:#181818;stroke-width:1.0;stroke-dasharray:7.0,7.0;"/><polygon fill="#181818" points="642.68,180.67,635.6579,173.7642,637.9984,178.9141,632.8485,181.2547,642.68,180.67" style="stroke:#181818;stroke-width:1.0;"/><text fill="#000000" font-family="sans-serif" font-size="13" lengthAdjust="spacing" textLength="41" x="194.95" y="125.377">include</text></g><!--link 1 to 6--><g id="link_1_6"><path d="M106.64,180.32 C145.91,151.77 230.2,100.46 300.95,125.11 C332.16,135.99 356.6227,158.0569 373.2527,175.8469 " fill="none" id="1-to-6" style="stroke:#181818;stroke-width:1.0;stroke-dasharray:7.0,7.0;"/><polygon fill="#181818" points="377.35,180.23,374.1261,170.9237,373.9356,176.5774,368.2819,176.3869,377.35,180.23" style="stroke:#181818;stroke-width:1.0;"/><text fill="#000000" font-family="sans-serif" font-size="13" lengthAdjust="spacing" textLength="41" x="258.95" y="125.377">include</text></g><!--link 2 to 3--><g id="link_2_3"><path d="M710.33,216.45 C749.01,242.99 816.3921,289.2061 853.7721,314.8461 " fill="none" id="2-to-3" style="stroke:#181818;stroke-width:1.0;stroke-dasharray:7.0,7.0;"/><polygon fill="#181818" points="858.72,318.24,853.5608,309.8506,854.5968,315.4118,849.0356,316.4478,858.72,318.24" style="stroke:#181818;stroke-width:1.0;"/><text fill="#000000" font-family="sans-serif" font-size="13" lengthAdjust="spacing" textLength="41" x="807.45" y="279.177">include</text></g><!--link 2 to 4--><g id="link_2_4"><path d="M685.96,217.3 C688.11,243.89 691.5443,286.3797 693.6143,311.8697 " fill="none" id="2-to-4" style="stroke:#181818;stroke-width:1.0;stroke-dasharray:7.0,7.0;"/><polygon fill="#181818" points="694.1,317.85,697.3584,308.5558,693.6953,312.8664,689.3846,309.2033,694.1,317.85" style="stroke:#181818;stroke-width:1.0;"/><text fill="#000000" font-family="sans-serif" font-size="13" lengthAdjust="spacing" textLength="41" x="691.45" y="279.177">include</text></g><!--link 6 to 3--><g id="link_6_3"><path d="M429.48,213.13 C477.21,231.34 563.04,262.72 638.45,283.1 C704.08,300.83 721.97,298.88 788.45,313.1 C801.87,315.97 810.4893,317.8699 823.9493,320.9299 " fill="none" id="6-to-3" style="stroke:#181818;stroke-width:1.0;stroke-dasharray:7.0,7.0;"/><polygon fill="#181818" points="829.8,322.26,821.9107,316.3644,824.9244,321.1516,820.1372,324.1653,829.8,322.26" style="stroke:#181818;stroke-width:1.0;"/><text fill="#000000" font-family="sans-serif" font-size="13" lengthAdjust="spacing" textLength="41" x="639.45" y="279.177">include</text></g><!--link 6 to 4--><g id="link_6_4"><path d="M412.61,214.76 C436.93,233.45 479.64,264.17 520.45,283.1 C559.37,301.15 600.2886,313.0875 635.6686,321.6575 " fill="none" id="6-to-4" style="stroke:#181818;stroke-width:1.0;stroke-dasharray:7.0,7.0;"/><polygon fill="#181818" points="641.5,323.07,633.6946,317.0637,636.6405,321.8929,631.8113,324.8388,641.5,323.07" style="stroke:#181818;stroke-width:1.0;"/><text fill="#000000" font-family="sans-serif" font-size="13" lengthAdjust="spacing" textLength="41" x="521.45" y="279.177">include</text></g><!--link 6 to 5--><g id="link_6_5"><path d="M363.67,214.01 C344.48,225.73 320.32,243.67 306.45,266.1 C297.77,280.12 294.9128,292.5746 293.6228,306.7746 " fill="none" id="6-to-5" style="stroke:#181818;stroke-width:1.0;stroke-dasharray:7.0,7.0;"/><polygon fill="#181818" points="293.08,312.75,297.8778,304.1488,293.5324,307.7705,289.9107,303.425,293.08,312.75" style="stroke:#181818;stroke-width:1.0;"/><text fill="#000000" font-family="sans-serif" font-size="13" lengthAdjust="spacing" textLength="41" x="307.45" y="279.177">include</text></g><!--link 6 to 7--><g id="link_6_7"><path d="M358.57,213.49 C298.91,239.55 181.2285,290.9487 121.2585,317.1387 " fill="none" id="6-to-7" style="stroke:#181818;stroke-width:1.0;stroke-dasharray:7.0,7.0;"/><polygon fill="#181818" points="115.76,319.54,125.6087,319.6037,120.3421,317.5389,122.4069,312.2724,115.76,319.54" style="stroke:#181818;stroke-width:1.0;"/><text fill="#000000" font-family="sans-serif" font-size="13" lengthAdjust="spacing" textLength="41" x="238.45" y="279.177">include</text></g><!--link 6 to 8--><g id="link_6_8"><path d="M386.57,215.43 C381.29,233.63 376.22,262.84 389.45,283.1 C402.61,303.26 419.9459,313.6388 442.1059,321.1288 " fill="none" id="6-to-8" style="stroke:#181818;stroke-width:1.0;stroke-dasharray:7.0,7.0;"/><polygon fill="#181818" points="447.79,323.05,440.5447,316.3788,443.0533,321.449,437.983,323.9576,447.79,323.05" style="stroke:#181818;stroke-width:1.0;"/><text fill="#000000" font-family="sans-serif" font-size="13" lengthAdjust="spacing" textLength="41" x="390.45" y="279.177">include</text></g><!--SRC=[TP11Zi8m34NtEONLFKWKQD4is704r0DOha6MsgHAMcx5Qex0nSPDPjIWCgjMxtrRtq4QdOScJEZ50GPem61anLN2o3t2W7TNpEfw-NCNiJmJ1MOAJ1WO2dBzuD43sz5ZYt5aj-Z07HE9inePk7izQUfIgFmdf2Jw_MSVy7V-iFZ1kmUp1x4tvtiaUNtRvO3Z4jIAlOow9RMEkdhRGnnYqrRQD5tdfzgRwFwtyPCn3MmsPprQNsh-gKtwgjd1zWmbV6apwgQM4wWoO4hOAjfdA9537gfMeMeLIkIu8lMAd3Bo0m00]--></g></svg>