<?xml version="1.0" encoding="us-ascii" standalone="no"?><svg xmlns="http://www.w3.org/2000/svg" xmlns:xlink="http://www.w3.org/1999/xlink" contentStyleType="text/css" height="214px" preserveAspectRatio="none" style="width:1053px;height:214px;background:#FFFFFF;" version="1.1" viewBox="0 0 1053 214" width="1053px" zoomAndPan="magnify"><defs/><g><!--entity U--><g id="elem_U"><ellipse cx="80.33" cy="14" fill="#F1F1F1" rx="8" ry="8" style="stroke:#181818;stroke-width:0.5;"/><path d="M80.33,22 L80.33,49 M67.33,30 L93.33,30 M80.33,49 L67.33,64 M80.33,49 L93.33,64 " fill="none" style="stroke:#181818;stroke-width:0.5;"/><text fill="#000000" font-family="sans-serif" font-size="14" lengthAdjust="spacing" textLength="49" x="55.83" y="78.5059">Usuario</text></g><!--entity SC--><g id="elem_SC"><ellipse cx="792.33" cy="14" fill="#F1F1F1" rx="8" ry="8" style="stroke:#181818;stroke-width:0.5;"/><path d="M792.33,22 L792.33,49 M779.33,30 L805.33,30 M792.33,49 L779.33,64 M792.33,49 L805.33,64 " fill="none" style="stroke:#181818;stroke-width:0.5;"/><text fill="#000000" font-family="sans-serif" font-size="14" lengthAdjust="spacing" textLength="109" x="737.83" y="78.5059">Sistema contacto</text></g><!--entity C--><g id="elem_C"><ellipse cx="973.33" cy="14" fill="#F1F1F1" rx="8" ry="8" style="stroke:#181818;stroke-width:0.5;"/><path d="M973.33,22 L973.33,49 M960.33,30 L986.33,30 M973.33,49 L960.33,64 M973.33,49 L986.33,64 " fill="none" style="stroke:#181818;stroke-width:0.5;"/><text fill="#000000" font-family="sans-serif" font-size="14" lengthAdjust="spacing" textLength="29" x="958.83" y="78.5059">Cine</text></g><g id="elem_1"><ellipse cx="80.3275" cy="183.7055" fill="#F1F1F1" rx="74.3275" ry="17.2655" style="stroke:#181818;stroke-width:0.5;"/><text fill="#000000" font-family="sans-serif" font-size="14" lengthAdjust="spacing" textLength="100" x="27.3275" y="187.4585">enviar pregunta</text></g><g id="elem_2"><ellipse cx="309.3253" cy="183.7131" fill="#F1F1F1" rx="76.9653" ry="17.7931" style="stroke:#181818;stroke-width:0.5;"/><text fill="#000000" font-family="sans-serif" font-size="14" lengthAdjust="spacing" textLength="107" x="252.8253" y="187.466">tramitar contacto</text></g><g id="elem_3"><ellipse cx="574.3305" cy="183.7061" fill="#F1F1F1" rx="110.0805" ry="24.4161" style="stroke:#181818;stroke-width:0.5;"/><text fill="#000000" font-family="sans-serif" font-size="14" lengthAdjust="spacing" textLength="185" x="481.8305" y="186.3121">proover informaci&#243;n contacto</text></g><g id="elem_4"><ellipse cx="792.33" cy="183.708" fill="#F1F1F1" rx="72.49" ry="16.898" style="stroke:#181818;stroke-width:0.5;"/><text fill="#000000" font-family="sans-serif" font-size="14" lengthAdjust="spacing" textLength="95" x="741.83" y="187.461">procesar env&#237;o</text></g><g id="elem_5"><ellipse cx="973.3267" cy="183.7113" fill="#F1F1F1" rx="73.9567" ry="17.1913" style="stroke:#181818;stroke-width:0.5;"/><text fill="#000000" font-family="sans-serif" font-size="14" lengthAdjust="spacing" textLength="99" x="920.8267" y="187.4643">confirmar env&#237;o</text></g><!--link U to 1--><g id="link_U_1"><path d="M80.33,82.56 C80.33,109.97 80.33,139.76 80.33,160.3 " fill="none" id="U-to-1" style="stroke:#181818;stroke-width:1.0;"/><polygon fill="#181818" points="80.33,166.3,84.33,157.3,80.33,161.3,76.33,157.3,80.33,166.3" style="stroke:#181818;stroke-width:1.0;"/></g><!--link SC to 4--><g id="link_SC_4"><path d="M792.33,82.56 C792.33,110.13 792.33,140.18 792.33,160.65 " fill="none" id="SC-to-4" style="stroke:#181818;stroke-width:1.0;"/><polygon fill="#181818" points="792.33,166.65,796.33,157.65,792.33,161.65,788.33,157.65,792.33,166.65" style="stroke:#181818;stroke-width:1.0;"/></g><!--link C to 5--><g id="link_C_5"><path d="M973.33,82.56 C973.33,109.97 973.33,139.76 973.33,160.3 " fill="none" id="C-to-5" style="stroke:#181818;stroke-width:1.0;"/><polygon fill="#181818" points="973.33,166.3,977.33,157.3,973.33,161.3,969.33,157.3,973.33,166.3" style="stroke:#181818;stroke-width:1.0;"/></g><!--link 1 to 2--><g id="link_1_2"><path d="M154.99,183.71 C179.66,183.71 201.15,183.71 226.01,183.71 " fill="none" id="1-to-2" style="stroke:#181818;stroke-width:1.0;stroke-dasharray:7.0,7.0;"/><polygon fill="#181818" points="232.01,183.71,223.01,179.71,227.01,183.71,223.01,187.71,232.01,183.71" style="stroke:#181818;stroke-width:1.0;"/><text fill="#000000" font-family="sans-serif" font-size="13" lengthAdjust="spacing" textLength="41" x="173.01" y="176.787">include</text></g><!--link 2 to 3--><g id="link_2_3"><path d="M386.69,183.71 C410.83,183.71 431.94,183.71 457.88,183.71 " fill="none" id="2-to-3" style="stroke:#181818;stroke-width:1.0;stroke-dasharray:7.0,7.0;"/><polygon fill="#181818" points="463.88,183.71,454.88,179.71,458.88,183.71,454.88,187.71,463.88,183.71" style="stroke:#181818;stroke-width:1.0;"/><text fill="#000000" font-family="sans-serif" font-size="13" lengthAdjust="spacing" textLength="41" x="404.77" y="176.787">include</text></g><!--link 2 to 4--><g id="link_2_4"><path d="M340.02,167.08 C369.5,152.11 415.78,131.22 458.83,122.78 C567.41,101.51 690.7966,142.118 751.6466,166.378 " fill="none" id="2-to-4" style="stroke:#181818;stroke-width:1.0;stroke-dasharray:7.0,7.0;"/><polygon fill="#181818" points="757.22,168.6,750.3413,161.5514,752.5755,166.7483,747.3786,168.9825,757.22,168.6" style="stroke:#181818;stroke-width:1.0;"/><text fill="#000000" font-family="sans-serif" font-size="13" lengthAdjust="spacing" textLength="41" x="459.83" y="125.377">include</text></g><!--link 2 to 5--><g id="link_2_5"><path d="M357.64,169.42 C411.33,154.34 500.89,131.56 579.83,122.78 C707.79,108.55 852.1036,145.5211 924.3736,167.6811 " fill="none" id="2-to-5" style="stroke:#181818;stroke-width:1.0;stroke-dasharray:7.0,7.0;"/><polygon fill="#181818" points="930.11,169.44,922.678,162.9773,925.3297,167.9742,920.3328,170.6259,930.11,169.44" style="stroke:#181818;stroke-width:1.0;"/><text fill="#000000" font-family="sans-serif" font-size="13" lengthAdjust="spacing" textLength="41" x="580.83" y="125.377">include</text></g><!--SRC=[NOyz3eCm34RtdC9Yfn9_ImSMZe0uW9MQob99K1AuLQSUWOlL0LKqJ8dU-puxGHsiWy4lwDW2UXX0uSwoddsW2K5R4oBAekwxd-_OK2G2rE99eoV8oAoC3cP7pqLQUwKuTN0uSP10ChCy0xEpTYK7R4Rh9jIyVKmQhfAm9Y_JPElsFdHzQgcDB4CItoWrG9wtyYhvIhpKwZZ5571heOIxhDUlvK6gZA2wWleAcZ_m1G00]--></g></svg>