<?xml version="1.0" encoding="us-ascii" standalone="no"?><svg xmlns="http://www.w3.org/2000/svg" xmlns:xlink="http://www.w3.org/1999/xlink" contentStyleType="text/css" height="187px" preserveAspectRatio="none" style="width:612px;height:187px;background:#FFFFFF;" version="1.1" viewBox="0 0 612 187" width="612px" zoomAndPan="magnify"><defs/><g><!--entity U--><g id="elem_U"><ellipse cx="70.64" cy="14" fill="#F1F1F1" rx="8" ry="8" style="stroke:#181818;stroke-width:0.5;"/><path d="M70.64,22 L70.64,49 M57.64,30 L83.64,30 M70.64,49 L57.64,64 M70.64,49 L83.64,64 " fill="none" style="stroke:#181818;stroke-width:0.5;"/><text fill="#000000" font-family="sans-serif" font-size="14" lengthAdjust="spacing" textLength="49" x="46.14" y="78.5059">Usuario</text></g><g id="elem_1"><ellipse cx="70.641" cy="162.5082" fill="#F1F1F1" rx="64.641" ry="15.3282" style="stroke:#181818;stroke-width:0.5;"/><text fill="#000000" font-family="sans-serif" font-size="14" lengthAdjust="spacing" textLength="72" x="31.641" y="166.2612">leer rese&#241;a</text></g><g id="elem_2"><ellipse cx="296.6385" cy="162.5097" fill="#F1F1F1" rx="84.0485" ry="19.2097" style="stroke:#181818;stroke-width:0.5;"/><text fill="#000000" font-family="sans-serif" font-size="14" lengthAdjust="spacing" textLength="125" x="231.1385" y="166.2627">seleccionar pel&#237;cula</text></g><g id="elem_3"><ellipse cx="532.6375" cy="162.5055" fill="#F1F1F1" rx="74.3275" ry="17.2655" style="stroke:#181818;stroke-width:0.5;"/><text fill="#000000" font-family="sans-serif" font-size="14" lengthAdjust="spacing" textLength="100" x="479.6375" y="166.2585">consultar BBDD</text></g><!--link U to 1--><g id="link_U_1"><path d="M70.64,82.76 C70.64,104.57 70.64,124.76 70.64,140.76 " fill="none" id="U-to-1" style="stroke:#181818;stroke-width:1.0;"/><polygon fill="#181818" points="70.64,146.76,74.64,137.76,70.64,141.76,66.64,137.76,70.64,146.76" style="stroke:#181818;stroke-width:1.0;"/></g><!--link 1 to 2--><g id="link_1_2"><path d="M135.71,162.51 C159.57,162.51 180.93,162.51 206.25,162.51 " fill="none" id="1-to-2" style="stroke:#181818;stroke-width:1.0;stroke-dasharray:7.0,7.0;"/><polygon fill="#181818" points="212.25,162.51,203.25,158.51,207.25,162.51,203.25,166.51,212.25,162.51" style="stroke:#181818;stroke-width:1.0;"/><text fill="#000000" font-family="sans-serif" font-size="13" lengthAdjust="spacing" textLength="41" x="153.44" y="155.587">include</text></g><!--link 2 to 3--><g id="link_2_3"><path d="M381.18,162.51 C406.31,162.51 427.64,162.51 452.09,162.51 " fill="none" id="2-to-3" style="stroke:#181818;stroke-width:1.0;stroke-dasharray:7.0,7.0;"/><polygon fill="#181818" points="458.09,162.51,449.09,158.51,453.09,162.51,449.09,166.51,458.09,162.51" style="stroke:#181818;stroke-width:1.0;"/><text fill="#000000" font-family="sans-serif" font-size="13" lengthAdjust="spacing" textLength="41" x="399" y="155.587">include</text></g><!--SRC=[JOmn3eCm34Ltd-AB7IJ2re41SOKSm78zHBAIAYR7OkWPk5YX7UZwtjDZsKf5zCOr5R0ZWgYv2hkYCzMAggx7cxlBZhTpDHL99NF5I-tOfTal2dSa9NkpxKoMPLs_TYAAwFlvVD68OKR00ocBjQTIkC3q1pu0]--></g></svg>