<?xml version="1.0" encoding="us-ascii" standalone="no"?><svg xmlns="http://www.w3.org/2000/svg" xmlns:xlink="http://www.w3.org/1999/xlink" contentStyleType="text/css" height="205px" preserveAspectRatio="none" style="width:1038px;height:205px;background:#FFFFFF;" version="1.1" viewBox="0 0 1038 205" width="1038px" zoomAndPan="magnify"><defs/><g><!--entity U--><g id="elem_U"><ellipse cx="82.97" cy="14" fill="#F1F1F1" rx="8" ry="8" style="stroke:#181818;stroke-width:0.5;"/><path d="M82.97,22 L82.97,49 M69.97,30 L95.97,30 M82.97,49 L69.97,64 M82.97,49 L95.97,64 " fill="none" style="stroke:#181818;stroke-width:0.5;"/><text fill="#000000" font-family="sans-serif" font-size="14" lengthAdjust="spacing" textLength="49" x="58.47" y="78.5059">Usuario</text></g><g id="elem_1"><ellipse cx="82.9653" cy="179.1731" fill="#F1F1F1" rx="76.9653" ry="17.7931" style="stroke:#181818;stroke-width:0.5;"/><text fill="#000000" font-family="sans-serif" font-size="14" lengthAdjust="spacing" textLength="107" x="26.4653" y="182.926">consultar horario</text></g><g id="elem_2"><ellipse cx="530.9685" cy="179.1697" fill="#F1F1F1" rx="84.0485" ry="19.2097" style="stroke:#181818;stroke-width:0.5;"/><text fill="#000000" font-family="sans-serif" font-size="14" lengthAdjust="spacing" textLength="125" x="465.4685" y="182.9227">seleccionar pel&#237;cula</text></g><g id="elem_3"><ellipse cx="956.9736" cy="179.1747" fill="#F1F1F1" rx="75.0736" ry="17.4147" style="stroke:#181818;stroke-width:0.5;"/><text fill="#000000" font-family="sans-serif" font-size="14" lengthAdjust="spacing" textLength="102" x="902.9736" y="182.9277">seleccionar sala</text></g><g id="elem_4"><ellipse cx="769.9653" cy="179.1731" fill="#F1F1F1" rx="76.9653" ry="17.7931" style="stroke:#181818;stroke-width:0.5;"/><text fill="#000000" font-family="sans-serif" font-size="14" lengthAdjust="spacing" textLength="107" x="713.4653" y="182.926">seleccionar pase</text></g><g id="elem_5"><ellipse cx="324.974" cy="179.1728" fill="#F1F1F1" rx="87.314" ry="19.8628" style="stroke:#181818;stroke-width:0.5;"/><text fill="#000000" font-family="sans-serif" font-size="14" lengthAdjust="spacing" textLength="133" x="255.474" y="182.9258">proover huso horario</text></g><!--link U to 1--><g id="link_U_1"><path d="M82.97,82.74 C82.97,108.44 82.97,135.22 82.97,154.9 " fill="none" id="U-to-1" style="stroke:#181818;stroke-width:1.0;"/><polygon fill="#181818" points="82.97,160.9,86.97,151.9,82.97,155.9,78.97,151.9,82.97,160.9" style="stroke:#181818;stroke-width:1.0;"/></g><!--link 1 to 2--><g id="link_1_2"><path d="M124.05,163.67 C163.69,149.6 225.72,129.9 281.47,122.03 C357.59,111.29 439.2429,138.8252 487.7729,159.3252 " fill="none" id="1-to-2" style="stroke:#181818;stroke-width:1.0;stroke-dasharray:7.0,7.0;"/><polygon fill="#181818" points="493.3,161.66,486.5658,154.4731,488.6941,159.7144,483.4528,161.8426,493.3,161.66" style="stroke:#181818;stroke-width:1.0;"/><text fill="#000000" font-family="sans-serif" font-size="13" lengthAdjust="spacing" textLength="41" x="282.47" y="125.377">include</text></g><!--link 1 to 5--><g id="link_1_5"><path d="M160.2,179.17 C184.82,179.17 206.24,179.17 231.53,179.17 " fill="none" id="1-to-5" style="stroke:#181818;stroke-width:1.0;stroke-dasharray:7.0,7.0;"/><polygon fill="#181818" points="237.53,179.17,228.53,175.17,232.53,179.17,228.53,183.17,237.53,179.17" style="stroke:#181818;stroke-width:1.0;"/><text fill="#000000" font-family="sans-serif" font-size="13" lengthAdjust="spacing" textLength="41" x="178.29" y="172.247">include</text></g><!--link 2 to 3--><g id="link_2_3"><path d="M567.35,161.44 C613.79,140.91 696.82,111.21 769.47,122.03 C822.48,129.93 875.6148,147.6259 912.9848,161.6959 " fill="none" id="2-to-3" style="stroke:#181818;stroke-width:1.0;stroke-dasharray:7.0,7.0;"/><polygon fill="#181818" points="918.6,163.81,911.5866,156.8953,913.9207,162.0482,908.7678,164.3822,918.6,163.81" style="stroke:#181818;stroke-width:1.0;"/><text fill="#000000" font-family="sans-serif" font-size="13" lengthAdjust="spacing" textLength="41" x="727.47" y="125.377">include</text></g><!--link 2 to 4--><g id="link_2_4"><path d="M615.23,179.17 C640.49,179.17 662.07,179.17 686.85,179.17 " fill="none" id="2-to-4" style="stroke:#181818;stroke-width:1.0;stroke-dasharray:7.0,7.0;"/><polygon fill="#181818" points="692.85,179.17,683.85,175.17,687.85,179.17,683.85,183.17,692.85,179.17" style="stroke:#181818;stroke-width:1.0;"/><text fill="#000000" font-family="sans-serif" font-size="13" lengthAdjust="spacing" textLength="41" x="633.51" y="172.247">include</text></g><!--SRC=[TOx12SCm34NldaBadaASvD93jl00GX7KOAnWnTsgKtInEcuXBhJNznwVZxHB0gSPanT01MTCLYPKXeuaQWux9hX9EeBkA8OpK0vCv2MMPEFmV50EM2FxErBy-F7FI27LJwVVaiYTouUiydLaDiP1to_baHdWie25A_X88Q_y1dC3Z3t8s90AfWQy0000]--></g></svg>